<?xml version="1.0" standalone="no"?><!DOCTYPE svg PUBLIC "-//W3C//DTD SVG 1.1//EN" "http://www.w3.org/Graphics/SVG/1.1/DTD/svg11.dtd"><svg t="1704275093069" class="icon" viewBox="0 0 1024 1024" version="1.1" xmlns="http://www.w3.org/2000/svg" p-id="1529" xmlns:xlink="http://www.w3.org/1999/xlink" width="200" height="200"><path d="M273.21 445.76c-14.24 0-25.78 11.54-25.78 25.78v278.27c0 14.24 11.54 25.78 25.78 25.78 14.24 0 25.78-11.54 25.78-25.78V471.54c0-14.24-11.54-25.78-25.78-25.78zM403.23 445.76c-14.24 0-25.78 11.54-25.78 25.78v278.27c0 14.24 11.54 25.78 25.78 25.78S429 764.04 429 749.81V471.54c0-14.24-11.54-25.78-25.77-25.78zM533.25 445.76c-14.24 0-25.78 11.54-25.78 25.78v278.27c0 14.24 11.54 25.78 25.78 25.78 14.24 0 25.78-11.54 25.78-25.78V471.54c-0.01-14.24-11.55-25.78-25.78-25.78zM663.27 445.76c-14.24 0-25.78 11.54-25.78 25.78v278.27c0 14.24 11.54 25.78 25.78 25.78s25.78-11.54 25.78-25.78V471.54c-0.01-14.24-11.54-25.78-25.78-25.78z" p-id="1530"></path><path d="M914.52 329.77h-7.17V228.39c0-0.18-0.05-0.35-0.05-0.53 17.19-17.3 27.84-41.11 27.84-67.38 0-52.73-42.9-95.64-95.64-95.64-52.73 0-95.64 42.9-95.64 95.64 0 26.26 10.65 50.08 27.84 67.38-0.01 0.18-0.05 0.34-0.05 0.52v101.38H654.8V228.39c0-14.24-11.54-25.78-25.78-25.78s-25.78 11.54-25.78 25.78v101.38H494.01V228.39c0-14.24-11.54-25.78-25.78-25.78-14.24 0-25.78 11.54-25.78 25.78v101.38H333.23V228.39c0-14.24-11.54-25.78-25.78-25.78-14.24 0-25.78 11.54-25.78 25.78v101.38H174.24c-14.24 0-25.78 11.54-25.78 25.78v84.15h-38.98c-14.24 0-25.78 11.54-25.78 25.78v290.4c0 14.24 11.54 25.78 25.78 25.78h38.98v84.15c0 14.24 11.54 25.78 25.78 25.78h30.22v46.95c0 11.39 9.23 20.62 20.62 20.62h125.86c11.39 0 20.62-9.23 20.62-20.62v-46.95h193.36v46.95c0 11.39 9.23 20.62 20.62 20.62H711.4c11.39 0 20.62-9.23 20.62-20.62v-46.95h30.22c14.24 0 25.78-11.54 25.78-25.78v-84.15h38.99c14.24 0 25.78-11.54 25.78-25.78v-290.4c0-14.24-11.54-25.78-25.78-25.78h-38.99v-58.38h126.51c14.24 0 25.78-11.54 25.78-25.78s-11.56-25.77-25.79-25.77zM839.5 106.09c29.99 0 54.4 24.4 54.4 54.4s-24.41 54.4-54.4 54.4-54.4-24.41-54.4-54.4 24.4-54.4 54.4-54.4z m-26.61 146.2c8.46 2.46 17.37 3.84 26.61 3.84 9.24 0 18.15-1.39 26.61-3.84v77.48h-53.22v-77.48zM330.31 917.91H245.7v-26.32h84.62v26.32z m360.47 0h-84.62v-26.32h84.62v26.32z m71.45-426.66h38.99V730.1h-38.99c-14.24 0-25.78 11.54-25.78 25.78v84.15H200.02v-84.15c0-14.24-11.54-25.78-25.78-25.78h-38.98V491.25h38.98c14.24 0 25.78-11.54 25.78-25.78v-84.15H736.46v84.15c0 14.24 11.54 25.78 25.77 25.78z" p-id="1531"></path></svg>