<?xml version="1.0" standalone="no"?><!DOCTYPE svg PUBLIC "-//W3C//DTD SVG 1.1//EN" "http://www.w3.org/Graphics/SVG/1.1/DTD/svg11.dtd"><svg t="1704275101647" class="icon" viewBox="0 0 1024 1024" version="1.1" xmlns="http://www.w3.org/2000/svg" p-id="1668" xmlns:xlink="http://www.w3.org/1999/xlink" width="200" height="200"><path d="M512 85.333333c-153.6 0-277.333333 123.733333-277.333333 277.333334s123.733333 277.333333 277.333333 277.333333 277.333333-123.733333 277.333333-277.333333S665.6 85.333333 512 85.333333z m0 512c-130.133333 0-234.666667-104.533333-234.666667-234.666666S381.866667 128 512 128s234.666667 104.533333 234.666667 234.666667-104.533333 234.666667-234.666667 234.666666z" fill="#000000" p-id="1669"></path><path d="M512 320c-153.6 0-277.333333 123.733333-277.333333 277.333333s123.733333 277.333333 277.333333 277.333334 277.333333-123.733333 277.333333-277.333334-123.733333-277.333333-277.333333-277.333333z m0 512c-130.133333 0-234.666667-104.533333-234.666667-234.666667s104.533333-234.666667 234.666667-234.666666 234.666667 104.533333 234.666667 234.666666-104.533333 234.666667-234.666667 234.666667z" fill="#000000" p-id="1670"></path><path d="M896 490.666667H128v-42.666667h768v42.666667zM597.333333 938.666667v-106.666667h-42.666666v64h-85.333334v-64h-42.666666v106.666667h170.666666z" fill="#000000" p-id="1671"></path></svg>