<?xml version="1.0" standalone="no"?><!DOCTYPE svg PUBLIC "-//W3C//DTD SVG 1.1//EN" "http://www.w3.org/Graphics/SVG/1.1/DTD/svg11.dtd"><svg t="1704275108363" class="icon" viewBox="0 0 1024 1024" version="1.1" xmlns="http://www.w3.org/2000/svg" p-id="1942" xmlns:xlink="http://www.w3.org/1999/xlink" width="200" height="200"><path d="M853.333333 85.333333H170.666667c-12.8 0-21.333333 8.533333-21.333334 21.333334v469.333333c0 200.533333 162.133333 362.666667 362.666667 362.666667s362.666667-162.133333 362.666667-362.666667V106.666667c0-12.8-8.533333-21.333333-21.333334-21.333334z m-21.333333 490.666667c0 177.066667-142.933333 320-320 320S192 753.066667 192 576V128h640v448z" fill="#000000" p-id="1943"></path><path d="M512 149.333333c-117.333333 0-213.333333 96-213.333333 213.333334s96 213.333333 213.333333 213.333333 213.333333-96 213.333333-213.333333S629.333333 149.333333 512 149.333333z m0 384c-93.866667 0-170.666667-76.8-170.666667-170.666666s76.8-170.666667 170.666667-170.666667 170.666667 76.8 170.666667 170.666667-76.8 170.666667-170.666667 170.666666z" fill="#000000" p-id="1944"></path><path d="M512 362.666667c-117.333333 0-213.333333 96-213.333333 213.333333s96 213.333333 213.333333 213.333333 213.333333-96 213.333333-213.333333-96-213.333333-213.333333-213.333333z m0 384c-93.866667 0-170.666667-76.8-170.666667-170.666667s76.8-170.666667 170.666667-170.666667 170.666667 76.8 170.666667 170.666667-76.8 170.666667-170.666667 170.666667z" fill="#000000" p-id="1945"></path><path d="M789.333333 490.666667H234.666667v-42.666667h554.666666v42.666667zM576 853.333333h-128v-42.666666h128v42.666666z" fill="#000000" p-id="1946"></path><path d="M469.333333 746.666667v106.666666h-42.666666v-106.666666h42.666666zM597.333333 746.666667v106.666666h-42.666666v-106.666666h42.666666z" fill="#000000" p-id="1947"></path></svg>