<?xml version="1.0" standalone="no"?><!DOCTYPE svg PUBLIC "-//W3C//DTD SVG 1.1//EN" "http://www.w3.org/Graphics/SVG/1.1/DTD/svg11.dtd"><svg t="1704275111303" class="icon" viewBox="0 0 1024 1024" version="1.1" xmlns="http://www.w3.org/2000/svg" p-id="2080" xmlns:xlink="http://www.w3.org/1999/xlink" width="200" height="200"><path d="M512 128c-117.824 0-213.333333 95.509333-213.333333 213.333333s95.509333 213.333333 213.333333 213.333334 213.333333-95.509333 213.333333-213.333334S629.824 128 512 128zM256 341.333333c0-141.376 114.624-256 256-256s256 114.624 256 256-114.624 256-256 256-256-114.624-256-256z" fill="#000000" p-id="2081"></path><path d="M512 384c-117.824 0-213.333333 95.509333-213.333333 213.333333s95.509333 213.333333 213.333333 213.333334 213.333333-95.509333 213.333333-213.333334-95.509333-213.333333-213.333333-213.333333zM256 597.333333c0-141.376 114.624-256 256-256s256 114.624 256 256-114.624 256-256 256-256-114.624-256-256z" fill="#000000" p-id="2082"></path><path d="M405.333333 896v-106.666667h-42.666666v128a21.333333 21.333333 0 0 0 21.333333 21.333334h256a21.333333 21.333333 0 0 0 21.333333-21.333334v-128h-42.666666v106.666667H405.333333z" fill="#000000" p-id="2083"></path></svg>