<?xml version="1.0" standalone="no"?><!DOCTYPE svg PUBLIC "-//W3C//DTD SVG 1.1//EN" "http://www.w3.org/Graphics/SVG/1.1/DTD/svg11.dtd"><svg t="1704275118698" class="icon" viewBox="0 0 1024 1024" version="1.1" xmlns="http://www.w3.org/2000/svg" p-id="2360" xmlns:xlink="http://www.w3.org/1999/xlink" width="200" height="200"><path d="M512 128c-117.824 0-213.333333 95.509333-213.333333 213.333333s95.509333 213.333333 213.333333 213.333334 213.333333-95.509333 213.333333-213.333334S629.824 128 512 128zM256 341.333333c0-141.376 114.624-256 256-256s256 114.624 256 256-114.624 256-256 256-256-114.624-256-256z" fill="#000000" p-id="2361"></path><path d="M512 384c-117.824 0-213.333333 95.509333-213.333333 213.333333s95.509333 213.333333 213.333333 213.333334 213.333333-95.509333 213.333333-213.333334-95.509333-213.333333-213.333333-213.333333zM256 597.333333c0-141.376 114.624-256 256-256s256 114.624 256 256-114.624 256-256 256-256-114.624-256-256z" fill="#000000" p-id="2362"></path><path d="M405.333333 789.333333v149.333334h-42.666666v-149.333334h42.666666z m213.333334 149.333334v-149.333334h42.666666v149.333334h-42.666666z" fill="#000000" p-id="2363"></path></svg>