<?xml version="1.0" standalone="no"?><!DOCTYPE svg PUBLIC "-//W3C//DTD SVG 1.1//EN" "http://www.w3.org/Graphics/SVG/1.1/DTD/svg11.dtd"><svg t="1704275123729" class="icon" viewBox="0 0 1024 1024" version="1.1" xmlns="http://www.w3.org/2000/svg" p-id="2641" xmlns:xlink="http://www.w3.org/1999/xlink" width="200" height="200"><path d="M512 170.666667c-117.824 0-213.333333 95.509333-213.333333 213.333333s95.509333 213.333333 213.333333 213.333333 213.333333-95.509333 213.333333-213.333333S629.824 170.666667 512 170.666667zM256 384c0-141.376 114.624-256 256-256s256 114.624 256 256-114.624 256-256 256-256-114.624-256-256z" fill="#000000" p-id="2642"></path><path d="M512 426.666667c-117.824 0-213.333333 95.509333-213.333333 213.333333s95.509333 213.333333 213.333333 213.333333 213.333333-95.509333 213.333333-213.333333-95.509333-213.333333-213.333333-213.333333zM256 640c0-141.376 114.624-256 256-256s256 114.624 256 256-114.624 256-256 256-256-114.624-256-256z" fill="#000000" p-id="2643"></path><path d="M128 490.666667h768v42.666666H128v-42.666666z" fill="#000000" p-id="2644"></path></svg>