<?xml version="1.0" standalone="no"?><!DOCTYPE svg PUBLIC "-//W3C//DTD SVG 1.1//EN" "http://www.w3.org/Graphics/SVG/1.1/DTD/svg11.dtd"><svg t="1704275126183" class="icon" viewBox="0 0 1024 1024" version="1.1" xmlns="http://www.w3.org/2000/svg" p-id="2781" xmlns:xlink="http://www.w3.org/1999/xlink" width="200" height="200"><path d="M128 320a21.333333 21.333333 0 0 1 21.333333-21.333333h725.333334a21.333333 21.333333 0 0 1 21.333333 21.333333v384a21.333333 21.333333 0 0 1-21.333333 21.333333H149.333333a21.333333 21.333333 0 0 1-21.333333-21.333333V320z m42.666667 21.333333v341.333334h682.666666V341.333333H170.666667z" fill="#000000" p-id="2782"></path><path d="M320 725.333333a64 64 0 1 0 0 128 64 64 0 0 0 0-128z m-106.666667 64a106.666667 106.666667 0 1 1 213.333334 0 106.666667 106.666667 0 0 1-213.333334 0zM704 725.333333a64 64 0 1 0 0 128 64 64 0 0 0 0-128z m-106.666667 64a106.666667 106.666667 0 1 1 213.333334 0 106.666667 106.666667 0 0 1-213.333334 0zM504.085333 129.536a21.333333 21.333333 0 0 1 15.829334 0l213.333333 85.333333a21.333333 21.333333 0 0 1 0 39.616l-213.333333 85.333334a21.333333 21.333333 0 0 1-15.829334 0l-213.333333-85.333334a21.333333 21.333333 0 0 1 0-39.616l213.333333-85.333333zM356.117333 234.666667L512 297.024 667.882667 234.666667 512 172.309333 356.117333 234.666667z" fill="#000000" p-id="2783"></path></svg>